<svg fill="#56BE32" width="24" height="24" viewBox="0 0 24 24" role="img" xmlns="http://www.w3.org/2000/svg"><title>FMOD</title><rect x="0" y="0" width="24" height="24" rx="4" fill="#132B13"/><path fill="#56BE32" d="M3.352 10.17a.903.903 0 0 0-.903.903v4.07H1.127v-2.814H0v-1.318h1.128a2.225 2.225 0 0 1 2.224-2.17h1.321v1.322zm7.326 1.84a.25.25 0 0 0-.238.174l-.532 1.834a1.564 1.564 0 0 1-3.001 0l-.532-1.835a.252.252 0 0 0-.477 0l-.532 1.835a1.572 1.572 0 0 1-1.512 1.123h-.368v-1.32h.373a.247.247 0 0 0 .235-.172l.532-1.835a1.57 1.57 0 0 1 3.009 0l.536 1.837a.246.246 0 0 0 .471 0l.532-1.834a1.57 1.57 0 0 1 3.009 0l.532 1.834a.247.247 0 0 0 .235.174h.374v1.319h-.369a1.571 1.571 0 0 1-1.512-1.123l-.532-1.835a.252.252 0 0 0-.233-.176zm2.69.906a2.225 2.225 0 1 1 2.225 2.225 2.225 2.225 0 0 1-2.225-2.225zm3.128 0a.903.903 0 1 0-.903.903.903.903 0 0 0 .903-.903zm4.674.46a.962.962 0 0 0 .067-.123.67.67 0 0 1 1.266.308.654.654 0 0 1-.055.262l-.019.04a2.268 2.268 0 0 1-2.034 1.276 2.225 2.225 0 0 1 0-4.45h.098a2.25 2.25 0 0 1 1.014.29V8.841h1.322v3.01a.742.742 0 0 1-.712.721 1.59 1.59 0 0 1-1.07-.373.902.902 0 0 0-.549-.191H20.4a.903.903 0 1 0 .776 1.366zM4.228 11.624a.704.704 0 0 1-.704.704.704.704 0 0 1-.704-.704.704.704 0 0 1 .704-.704.704.704 0 0 1 .704.704z"/></svg>
